PathFileType	4	(X/Y/Z)	Patient4_TMGait_0pt6_01_left_12.trc.trc
DataRate	CameraRate	NumFrames	NumMarkers	Units	OrigDataRate	OrigDataStartFrame	OrigNumFrames
80.000000000000	80.000000000000	4	33	mm	80.000000000000	36	       141
Frame#	Time	Sacral			L.Shoulder			Chest			R.Shoulder			Neck			R.ASIS			L.ASIS			R.Thigh.Superior			R.Thigh.Lateral			R.Thigh.Inferior			R.Patella			L.Thigh.Superior			L.Thigh.Lateral			L.Thigh.Inferior			L.Patella			L.Shank.Superior			L.Shank.Lateral			L.Shank.Inferior			R.Shank.Superior			R.Shank.Lateral			R.Shank.Inferior			R.Heel			R.Midfoot.Superior			R.Midfoot.Lateral			R.Toe			L.Heel			L.Midfoot.Lateral			L.Midfoot.Superior			L.Toe			L.Elbow			L.Wrist			R.Elbow			R.Wrist			
		X1	Y1	Z1	X2	Y2	Z2	X3	Y3	Z3	X4	Y4	Z4	X5	Y5	Z5	X6	Y6	Z6	X7	Y7	Z7	X8	Y8	Z8	X9	Y9	Z9	X10	Y10	Z10	X11	Y11	Z11	X12	Y12	Z12	X13	Y13	Z13	X14	Y14	Z14	X15	Y15	Z15	X16	Y16	Z16	X17	Y17	Z17	X18	Y18	Z18	X19	Y19	Z19	X20	Y20	Z20	X21	Y21	Z21	X22	Y22	Z22	X23	Y23	Z23	X24	Y24	Z24	X25	Y25	Z25	X26	Y26	Z26	X27	Y27	Z27	X28	Y28	Z28	X29	Y29	Z29	X30	Y30	Z30	X31	Y31	Z31	X32	Y32	Z32	X33	Y33	Z33	

36	14.957500000000	675.886039213277	994.413438347113	480.462091112389	810.725855868457	1426.123336733487	294.373878543183	934.860596757517	1358.090306870630	440.293775807164	871.436848147262	1426.347663765320	623.400552800533	812.754511352463	1484.150541281352	449.559389926064	908.416602535206	927.731645580644	581.147350599755	878.388793614204	954.271505953399	307.692751242139	904.531111111102	713.128207875830	556.206093710906	800.715921263195	620.469300224139	619.225566532551	862.661721683966	550.504773852423	542.451250320853	838.798557031572	452.786492140067	552.860771307680	959.052411180547	765.024292377223	345.446869285893	900.598180179146	636.100509540025	275.948320305310	999.128443008748	574.038709217312	339.610862354399	1013.296391315477	501.801229271285	344.394503002130	990.237677727400	426.179756737763	335.721110970627	908.550835912049	306.235050293265	285.836998332394	971.090755274046	197.947049360150	351.126608643174	774.193647401166	381.248173926529	560.052550981078	668.525939711606	315.294304034555	624.134353100828	668.990631381911	209.836579821388	566.115329179584	482.623050618927	89.693678897962	541.272753112368	661.667067200928	102.728480976637	577.926801993156	561.510224485332	60.167154145874	613.565571890418	764.310392104393	36.403412273659	603.848680500477	854.783389710633	38.440298054999	395.575923335057	923.939819798452	35.976085686996	310.545198043371	1008.081795293240	97.787121811244	332.430925157122	1134.558704685762	46.599827524830	296.031042048121	715.920834054403	1081.181428083876	195.997473049044	707.130402701440	822.414653346831	192.241162443259	1000.357167617945	1107.786418614373	741.062720897166	1252.658413770146	1119.083740468469	706.068827867017	
37	14.970000000000	676.646706376320	995.713125778541	476.543744819556	811.859907403929	1428.070816719216	291.868459362689	935.274298747366	1359.853153609421	438.292046416704	870.786946737533	1427.716769449545	621.157604493647	812.936510222908	1485.676784819896	447.190323246207	908.764410937178	929.237271733030	577.825246666697	879.783649284970	955.968528237604	304.547566882414	907.652819918208	714.794858781961	554.082780923342	805.180597442199	621.078751310331	617.024296090462	869.269738711618	551.244569422103	541.402731293009	846.225203910982	451.929817099372	553.493693628025	959.179747744235	764.948393934888	341.732514123500	898.391004294673	636.151503737119	274.037677242846	996.377081730965	573.243120082481	337.515393798209	1009.764733095120	501.160561206837	343.114314030992	986.124184396812	425.606542777559	334.617356126268	903.521778750236	306.198518034004	285.253236901018	964.877483703702	197.596466500098	350.887853403012	778.987960750390	381.665125118474	560.263152737349	670.598807953528	319.488334799090	623.466314313211	669.049381326716	213.269832475060	566.754764455782	479.231123975079	99.671261477739	541.521187004661	658.421907162834	104.368947472974	578.694445506378	556.448557166572	66.022962856905	613.676443289775	757.072184600336	35.936603174112	603.787264636573	847.384423511552	38.427080610128	395.565374054727	916.555385354080	36.030420459597	310.543189553103	1000.744604209998	97.771984410070	332.501066794408	1127.237113187949	46.350980361254	295.996754006546	721.852183548353	1081.776911410242	192.212662764850	720.976790093831	822.659471025357	188.163082483933	992.481048851202	1105.321356481140	738.374824242562	1245.404738246648	1105.147626798609	705.206758387392	
38	14.982500000000	677.360574788246	997.061032387855	472.661954061688	813.167569491233	1430.070512992828	289.362093567135	935.738188382248	1361.627094585025	436.371571683322	870.050130783544	1429.056483868112	618.952092742394	813.094673744842	1487.203040787067	444.851172988473	909.027805219176	930.726244676229	574.547727970641	881.088988400452	957.595169544012	301.500948284895	911.224284470972	716.569810332242	552.014967317323	810.403548770733	621.620899024198	614.954202992524	876.727959399263	552.087521499645	540.386001084794	854.529506044790	451.222612195738	554.141869727980	958.888552650969	764.610644184763	337.873897186672	895.549955156573	636.149020619628	272.007948348348	992.940453342973	572.336178582560	335.280311004177	1005.511984281616	500.459841508154	341.602117708923	981.365394937359	425.025295916484	333.307728438023	897.940062830104	306.035561471912	284.585261268328	958.387386078098	197.248750295801	350.535465811368	784.760025714658	382.198477185401	560.528513403445	673.647526737377	324.051012829319	622.785966927095	669.957815200616	217.121585484359	567.418627149534	476.812615799620	110.852620886457	541.666297803758	655.671906234154	106.377661666127	579.404211381649	551.938265078781	72.874035795430	613.730620169802	749.819411287912	35.306779851515	603.790380351667	839.941056364986	38.397868997901	395.574070992279	909.108501426715	36.039853196825	310.540669529049	993.357489745805	97.707329499629	332.535124692695	1119.864065383671	46.018696822722	295.941615372031	727.769885617393	1082.625866134105	188.245913521665	735.717496688075	823.400188116506	183.937697498705	984.103224404121	1102.903216309221	735.645213080947	1237.140700456961	1090.090672071405	704.444539373077	
39	14.995000000000	677.961543583447	998.386449264071	468.853978961653	814.641634233766	1432.023422740750	286.873139350030	936.253150663581	1363.310516647518	434.543779784216	869.256573927409	1430.292251315721	616.799121783228	813.248433695281	1488.660058782423	442.551832899827	909.167220204810	932.120187875650	571.359802754106	882.253322140121	959.092378589726	298.570487623240	915.210018597182	718.429007123797	549.963513123379	816.379209731013	622.077416027748	613.005180895432	884.959855052154	553.039162723291	539.319896713621	863.634506131529	450.680996719928	554.655638316905	958.202511541708	764.062596104898	333.980241271044	892.246576168835	636.138820469217	269.857341406646	988.955305324008	571.369642458384	332.951256475658	1000.668165174612	499.719265871543	339.885046853813	976.092842730758	424.443066082426	331.819279203455	891.941112003618	305.773108674980	283.790322657152	951.685156276678	196.905306461052	350.072290615016	791.462597354781	382.846413914770	560.722329078687	677.708480045160	328.939140100570	622.047118597787	671.710191022843	221.389648992346	568.022678494515	475.474285874838	123.201130555181	541.672215467514	653.421255402583	108.846647172754	580.000256510771	548.074548488550	80.780258617252	613.702676909621	742.592447976307	34.486180424274	603.881495045054	832.461848654721	38.361720896459	395.581178889932	901.613258266746	36.008631211471	310.522447011256	985.935593176575	97.598011970919	332.524448657209	1112.452585924741	45.615209189887	295.868893510283	733.664270152068	1083.630944287306	184.088440721653	751.270734778733	824.626584011652	179.574133022494	975.280806634559	1100.492733643604	732.890208573040	1227.768883351144	1074.009593575094	703.793698360090	
